<svg id="visual" viewBox="0 0 900 600" width="900" height="600" xmlns="http://www.w3.org/2000/svg" xmlns:xlink="http://www.w3.org/1999/xlink" version="1.1"><path d="M0 521L21.5 519.8C43 518.7 86 516.3 128.8 515.3C171.7 514.3 214.3 514.7 257.2 516C300 517.3 343 519.7 385.8 515.8C428.7 512 471.3 502 514.2 500C557 498 600 504 642.8 508.7C685.7 513.3 728.3 516.7 771.2 514.3C814 512 857 504 878.5 500L900 496L900 601L878.5 601C857 601 814 601 771.2 601C728.3 601 685.7 601 642.8 601C600 601 557 601 514.2 601C471.3 601 428.7 601 385.8 601C343 601 300 601 257.2 601C214.3 601 171.7 601 128.8 601C86 601 43 601 21.5 601L0 601Z" fill="#171717" stroke-linecap="round" stroke-linejoin="miter"></path></svg>